<svg width="16" height="16" viewBox="0 0 16 16" fill="none" xmlns="http://www.w3.org/2000/svg">
<mask id="path-1-inside-1_97_12817" fill="white">
<path d="M13.7795 5.99949C13.7795 6.12616 13.7329 6.25282 13.6329 6.35283L9.28619 10.6995C8.57953 11.4062 7.41952 11.4062 6.71286 10.6995L2.36619 6.35283C2.17286 6.15949 2.17286 5.83949 2.36619 5.64616C2.55952 5.45283 2.87952 5.45283 3.07286 5.64616L7.41952 9.99283C7.73952 10.3128 8.25952 10.3128 8.57952 9.99283L12.9262 5.64616C13.1195 5.45283 13.4395 5.45283 13.6329 5.64616C13.7262 5.74616 13.7795 5.87283 13.7795 5.99949Z"/>
</mask>
<path d="M13.6329 6.35283L12.9258 5.64572L13.6329 6.35283ZM9.28619 10.6995L9.9933 11.4066L9.9933 11.4066L9.28619 10.6995ZM6.71286 10.6995L6.00575 11.4066L6.00575 11.4066L6.71286 10.6995ZM2.36619 6.35283L3.0733 5.64572L3.0733 5.64572L2.36619 6.35283ZM3.07286 5.64616L2.36575 6.35327L2.36575 6.35327L3.07286 5.64616ZM7.41952 9.99283L8.12663 9.28572L7.41952 9.99283ZM8.57952 9.99283L9.28663 10.6999L9.28663 10.6999L8.57952 9.99283ZM12.9262 5.64616L12.2191 4.93905L12.9262 5.64616ZM13.6329 5.64616L14.3639 4.96384L14.3522 4.95124L14.34 4.93905L13.6329 5.64616ZM13.7795 5.99949L12.7795 5.99949C12.7795 5.87526 12.8283 5.74314 12.9258 5.64572L13.6329 6.35283L14.34 7.05993C14.6374 6.76251 14.7795 6.37706 14.7795 5.99949L13.7795 5.99949ZM13.6329 6.35283L12.9258 5.64572L8.57908 9.99239L9.28619 10.6995L9.9933 11.4066L14.34 7.05993L13.6329 6.35283ZM9.28619 10.6995L8.57908 9.99239C8.26294 10.3085 7.73611 10.3085 7.41996 9.99239L6.71286 10.6995L6.00575 11.4066C7.10294 12.5038 8.89611 12.5038 9.9933 11.4066L9.28619 10.6995ZM6.71286 10.6995L7.41996 9.99239L3.0733 5.64572L2.36619 6.35283L1.65908 7.05993L6.00575 11.4066L6.71286 10.6995ZM2.36619 6.35283L3.0733 5.64572C3.27049 5.84291 3.27049 6.15607 3.0733 6.35327L2.36619 5.64616L1.65908 4.93905C1.07523 5.52291 1.07523 6.47607 1.65908 7.05993L2.36619 6.35283ZM2.36619 5.64616L3.0733 6.35327C2.87611 6.55046 2.56294 6.55046 2.36575 6.35327L3.07286 5.64616L3.77996 4.93905C3.19611 4.35519 2.24294 4.35519 1.65908 4.93905L2.36619 5.64616ZM3.07286 5.64616L2.36575 6.35327L6.71242 10.6999L7.41952 9.99283L8.12663 9.28572L3.77996 4.93905L3.07286 5.64616ZM7.41952 9.99283L6.71242 10.6999C7.42294 11.4105 8.57611 11.4105 9.28663 10.6999L8.57952 9.99283L7.87242 9.28572C7.94294 9.21519 8.05611 9.21519 8.12663 9.28572L7.41952 9.99283ZM8.57952 9.99283L9.28663 10.6999L13.6333 6.35327L12.9262 5.64616L12.2191 4.93905L7.87242 9.28572L8.57952 9.99283ZM12.9262 5.64616L13.6333 6.35327C13.4361 6.55046 13.1229 6.55046 12.9258 6.35327L13.6329 5.64616L14.34 4.93905C13.7561 4.35519 12.8029 4.35519 12.2191 4.93905L12.9262 5.64616ZM13.6329 5.64616L12.9018 6.32848C12.8417 6.26405 12.7795 6.15313 12.7795 5.99949L13.7795 5.99949L14.7795 5.99949C14.7795 5.59252 14.6107 5.22827 14.3639 4.96384L13.6329 5.64616Z" fill="#303030" mask="url(#path-1-inside-1_97_12817)"/>
</svg>
